PathFileType	4	(X/Y/Z)	C:/Users/CLatella/Desktop/xsens/test 22settembre2016/Meri Veloce/Meri-002_My MVN System.trc	
DataRate	CameraRate	NumFrames	NumMarkers	Units	OrigDataRate	OrigDataStartFrame	OrigNumFrames	
240.00	240.00	5	64	mm	240.00	1	597	
Frame#	Time	pHipOrigin			pRightASI			pLeftASI			pRightCSI			pLeftCSI			pRightIschialTub			pLeftIschialTub			pSacrum			pL5SpinalProcess			pL3SpinalProcess			pT12SpinalProcess			pPX			pIJ			pT4SpinalProcess			pT8SpinalProcess			pC7SpinalProcess			pTopOfHead			pRightAuricularis			pLeftAuricularis			pBackOfHead			pRightAcromion			pLeftAcromion			pRightArmLatEpicondyle			pRightArmMedEpicondyle			pLeftArmLatEpicondyle			pLeftArmMedEpicondyle			pRightUlnarStyloid			pRightRadialStyloid			pRightOlecranon			pLeftUlnarStyloid			pLeftRadialStyloid			pLeftOlecranon			pRightTopOfHand			pRightPinky			pRightBallHand			pLeftTopOfHand			pLeftPinky			pLeftBallHand			pRightGreaterTrochanter			pRightKneeLatEpicondyle			pRightKneeMedEpicondyle			pRightPatella			pLeftGreaterTrochanter			pLeftKneeLatEpicondyle			pLeftKneeMedEpicondyle			pLeftPatella			pRightLatMalleolus			pRightMedMalleolus			pRightTibialTub			pLeftLatMalleolus			pLeftMedMalleolus			pLeftTibialTub			pRightHeelFoot			pRightFirstMetatarsal			pRightFifthMetatarsal			pRightPivotFoot			pRightHeelCenter			pRightToe			pLeftHeelFoot			pLeftFirstMetatarsal			pLeftFifthMetatarsal			pLeftPivotFoot			pLeftHeelCenter			pLeftToe			
		X1	Y1	Z1	X2	Y2	Z2	X3	Y3	Z3	X4	Y4	Z4	X5	Y5	Z5	X6	Y6	Z6	X7	Y7	Z7	X8	Y8	Z8	X9	Y9	Z9	X10	Y10	Z10	X11	Y11	Z11	X12	Y12	Z12	X13	Y13	Z13	X14	Y14	Z14	X15	Y15	Z15	X16	Y16	Z16	X17	Y17	Z17	X18	Y18	Z18	X19	Y19	Z19	X20	Y20	Z20	X21	Y21	Z21	X22	Y22	Z22	X23	Y23	Z23	X24	Y24	Z24	X25	Y25	Z25	X26	Y26	Z26	X27	Y27	Z27	X28	Y28	Z28	X29	Y29	Z29	X30	Y30	Z30	X31	Y31	Z31	X32	Y32	Z32	X33	Y33	Z33	X34	Y34	Z34	X35	Y35	Z35	X36	Y36	Z36	X37	Y37	Z37	X38	Y38	Z38	X39	Y39	Z39	X40	Y40	Z40	X41	Y41	Z41	X42	Y42	Z42	X43	Y43	Z43	X44	Y44	Z44	X45	Y45	Z45	X46	Y46	Z46	X47	Y47	Z47	X48	Y48	Z48	X49	Y49	Z49	X50	Y50	Z50	X51	Y51	Z51	X52	Y52	Z52	X53	Y53	Z53	X54	Y54	Z54	X55	Y55	Z55	X56	Y56	Z56	X57	Y57	Z57	X58	Y58	Z58	X59	Y59	Z59	X60	Y60	Z60	X61	Y61	Z61	X62	Y62	Z62	X63	Y63	Z63	X64	Y64	Z64	

1	0.000	91.55774	198.14959	927.50443	160.11328	80.53272	1001.47226	155.60305	320.07623	998.46544	126.58722	101.58048	1073.83645	122.87880	299.57972	1071.33077	38.58755	147.03361	882.35199	36.73335	246.05829	881.09914	24.25503	197.19743	952.56129	62.24122	199.35231	1025.42661	78.82886	197.24754	1129.46266	100.42786	193.83981	1219.91790	257.23364	187.42525	1255.64897	292.36335	179.95831	1360.38661	158.00851	183.36604	1383.33869	129.09290	188.87855	1307.71711	174.64626	180.40933	1428.24057	360.01685	173.64398	1602.48591	291.21073	109.79913	1533.37912	294.71869	240.24510	1532.57730	247.41136	176.40024	1556.43142	215.18825	12.82911	1386.59608	203.91266	358.66378	1378.72823	329.29715	53.72189	1097.49012	303.23802	108.84697	1094.98443	303.48859	342.27660	1081.90476	285.29732	284.14470	1078.39680	365.67970	63.19338	871.62765	405.11918	86.99739	881.39983	297.27449	67.20248	1092.12795	355.10571	322.68214	857.89650	392.64087	297.07404	870.22447	276.07640	328.29488	1074.83872	489.86146	62.64213	740.78077	424.76376	39.08869	785.58242	389.43359	64.39611	839.70523	479.63826	374.85051	745.34112	416.74556	380.41313	798.41153	379.00994	336.11261	836.19727	82.63750	50.81530	899.74144	101.48025	76.47351	519.92968	115.96311	148.73747	519.77934	149.43907	106.99276	524.18934	102.73309	347.38820	903.85077	79.27988	356.85969	523.58798	66.50089	284.59573	516.82263	113.10663	311.10587	520.18025	115.76266	60.03622	95.56683	112.85606	122.77857	92.25933	176.19978	114.71027	486.90475	66.95191	375.50198	95.76729	73.51680	313.11042	91.65796	138.66462	325.63885	485.85236	77.02476	89.00194	-0.15034	221.45246	120.37312	2.80637	220.90121	53.67178	4.71069	240.09476	87.79921	4.30978	116.46425	88.80148	5.16171	316.81884	87.14773	5.21183	31.42129	338.01693	0.40091	179.25672	337.61602	0.50114	164.77386	402.76384	2.05466	190.68264	373.39721	1.40318	70.05896	346.48615	4.91114	265.75297	390.13519	0.85193 
2	0.004	90.80603	197.94913	927.50443	159.56203	80.33227	1001.22169	155.10191	319.87577	998.21487	126.33665	101.38002	1073.73622	122.62823	299.37927	1071.23054	37.63539	146.88327	882.55244	35.78118	245.85783	881.29960	23.60355	196.99697	952.81186	61.84031	199.20197	1025.57695	78.87897	197.04708	1129.51278	100.92900	193.68947	1219.91790	257.93523	187.22480	1254.69681	293.66631	179.75786	1359.28411	159.46181	183.16559	1382.98789	130.09518	188.72821	1307.51665	176.30001	180.20888	1427.78954	361.97128	173.39342	1601.63398	293.11506	109.54856	1532.52718	296.62301	240.04464	1531.72536	249.31568	176.14967	1555.62960	216.64154	12.67877	1386.14505	205.41607	358.46333	1377.92641	329.69806	53.17064	1096.63819	303.63893	108.29571	1094.18261	303.93962	342.32671	1080.90248	285.74834	284.19482	1077.39452	365.47924	62.54190	870.67549	404.91873	86.34591	880.34744	297.67540	66.65123	1091.37625	354.95537	323.13316	856.79400	392.54064	297.42483	868.92151	276.52742	328.34499	1073.88656	489.51066	61.79020	739.67827	424.46307	38.33698	784.58015	389.18303	63.64440	838.70295	479.23735	375.30153	743.93794	416.54511	380.86415	797.20880	378.85960	336.56364	834.99454	81.73545	50.66495	899.69133	100.97911	76.52363	519.92968	115.56220	148.73747	519.82945	148.98804	106.89253	524.23946	101.83105	347.23786	903.90088	78.62840	356.70935	523.58798	65.94963	284.39527	516.82263	112.50527	311.00565	520.18025	115.71254	60.03622	95.56683	112.85606	122.77857	92.30944	175.79887	114.71027	486.95486	66.70134	375.30153	95.76729	73.36646	312.90997	91.65796	138.06325	325.53862	485.95259	77.12499	89.05205	-0.20045	221.50257	120.37312	2.90659	220.95132	53.67178	4.81092	240.19498	87.74910	4.41001	116.56448	88.85160	5.16171	316.91906	87.09762	5.41228	31.27095	337.86659	0.40091	179.05626	337.41557	0.45102	164.62352	402.51327	2.05466	190.53230	373.19675	1.40318	69.90862	346.33581	4.91114	265.60263	389.83450	0.85193 
3	0.008	90.00421	197.74868	927.50443	159.01078	80.13181	1000.97112	154.60078	319.67532	997.96430	126.03597	101.17957	1073.58588	122.37767	299.17881	1071.13031	36.68323	146.68281	882.75290	34.82902	245.65738	881.50005	22.85185	196.84663	953.06242	61.38929	199.00152	1025.67718	78.92908	196.84663	1129.61300	101.43014	193.48901	1219.86778	258.58671	187.02434	1253.79476	294.91915	179.50729	1358.13149	160.86499	182.96513	1382.63709	131.04734	188.52775	1307.36631	177.90365	179.95831	1427.28841	363.87561	173.14285	1600.78205	294.96926	109.29799	1531.72536	298.52734	239.79407	1530.87343	251.16988	175.94921	1554.82778	218.09484	12.47831	1385.69403	206.86937	358.26287	1377.17470	330.04885	52.61939	1095.78625	303.98973	107.74446	1093.33068	304.39064	342.37683	1079.90021	286.14925	284.24493	1076.39225	365.22868	61.84031	869.67322	404.66816	85.64432	879.24494	298.02620	66.09998	1090.57443	354.85514	323.53407	855.64138	392.39030	297.77563	867.61856	276.92833	328.44522	1072.98452	489.15987	60.93826	738.57577	424.16239	37.53516	783.57788	388.88234	62.94281	837.65056	478.88656	375.70244	742.53475	416.34465	381.31517	796.00608	378.65915	337.01466	833.84192	80.83340	50.51461	899.64122	100.42786	76.52363	519.92968	115.21141	148.73747	519.87957	148.53702	106.84242	524.28957	100.92900	347.03740	903.90088	77.87670	356.50889	523.58798	65.29816	284.19482	516.82263	111.85379	310.85531	520.23036	115.71254	60.08633	95.56683	112.85606	122.77857	92.30944	175.39796	114.66015	487.05509	66.45077	375.10107	95.76729	73.11589	312.70951	91.65796	137.41178	325.38828	486.00270	77.22522	89.10217	-0.20045	221.60280	120.37312	3.05694	221.05155	53.67178	4.91114	240.24510	87.74910	4.56035	116.66470	88.90171	5.21183	316.96918	87.04750	5.61273	30.97027	337.71625	0.35080	178.80570	337.11489	0.45102	164.37295	402.26270	2.05466	190.28173	372.89607	1.40318	69.65805	346.13535	4.91114	265.35206	389.53382	0.85193 
4	0.013	89.15228	197.54822	927.50443	158.45953	79.88124	1000.77067	154.04953	319.42475	997.71373	125.73528	100.97911	1073.48565	122.07698	298.97836	1070.97997	35.68096	146.43224	882.95335	33.87686	245.45692	881.70051	22.15026	196.59606	953.31299	60.93826	198.80106	1025.82752	78.97920	196.64617	1129.66312	101.93127	193.28856	1219.81767	259.23819	186.77378	1252.84260	296.22210	179.25672	1356.97888	162.26817	182.71456	1382.23619	132.04961	188.27719	1307.16586	179.55740	179.75786	1426.73715	365.77993	172.89228	1599.82989	296.82347	109.04742	1530.87343	300.43166	239.54351	1530.02150	253.07421	175.69865	1553.97585	219.54814	12.32797	1385.24301	208.32267	358.01230	1376.42300	330.39965	52.06814	1094.93432	304.39064	107.19321	1092.47875	304.84166	342.37683	1078.89793	286.60027	284.24493	1075.38998	364.92799	61.13872	868.72106	404.41759	84.99284	878.09232	298.37699	65.54872	1089.77261	354.70480	323.93498	854.48877	392.23996	298.07631	866.36572	277.37935	328.49533	1072.03236	488.80907	60.08633	737.47327	423.81160	36.73335	782.52549	388.63177	62.19111	836.59818	478.53576	376.15346	741.18168	416.14420	381.71608	794.80335	378.50881	337.41557	832.63919	79.88124	50.31416	899.59110	99.92673	76.57374	519.87957	114.81050	148.73747	519.92968	148.08600	106.74219	524.33969	100.02695	346.83695	903.90088	77.07488	356.25832	523.58798	64.64668	283.94425	516.82263	111.10208	310.65485	520.23036	115.76266	60.13644	95.61695	112.95629	122.82869	92.35956	174.99705	114.66015	487.15532	66.09998	374.85051	95.71717	72.81521	312.45894	91.65796	136.71018	325.18783	486.05282	77.32545	89.15228	-0.20045	221.75314	120.42323	3.15716	221.15178	53.72189	5.01137	240.39544	87.79921	4.66057	116.76493	88.95182	5.21183	317.11952	87.09762	5.81319	30.66959	337.46568	0.35080	178.45490	336.81420	0.45102	164.07227	401.96202	2.05466	189.98105	372.59539	1.40318	69.30725	345.88479	4.86103	265.05138	389.18303	0.85193 
5	0.017	88.35046	197.29765	927.50443	157.90828	79.68079	1000.52010	153.49828	319.22429	997.46317	125.43460	100.77866	1073.38543	121.77630	298.77790	1070.87974	34.72880	146.23179	883.15381	32.87459	245.20635	881.90096	21.44867	196.39561	953.56356	60.48724	198.60061	1025.97786	78.97920	196.44572	1129.71323	102.38230	193.08810	1219.76756	259.88967	186.57332	1251.89044	297.42483	179.00615	1355.82626	163.67136	182.51411	1381.88539	133.00177	188.07673	1306.96540	181.21115	179.50729	1426.23602	367.68425	172.64171	1598.92784	298.67768	108.79685	1529.97138	302.28586	239.29294	1529.11945	254.97853	175.44808	1553.12392	220.95132	12.12752	1384.74187	209.77597	357.81185	1375.62118	330.75045	51.51689	1094.03227	304.74143	106.64196	1091.62682	305.24257	342.37683	1077.89566	287.00118	284.24493	1074.38770	364.62731	60.43713	867.66867	404.16702	84.29125	876.98982	298.72779	64.99747	1088.97079	354.55446	324.33589	853.38627	392.08962	298.42711	865.06276	277.83038	328.54544	1071.13031	488.45827	59.18428	736.37077	423.51091	35.93153	781.47310	388.28098	61.43940	835.54579	478.13485	376.60449	739.82861	415.94374	382.16711	793.65073	378.30835	337.81648	831.48658	78.97920	50.16382	899.54099	99.42559	76.57374	519.87957	114.45970	148.73747	519.97979	147.63497	106.69208	524.43991	99.12491	346.63649	903.90088	76.27306	356.05787	523.58798	63.94509	283.69368	516.82263	110.35038	310.45440	520.23036	115.81277	60.18656	95.61695	113.00640	122.92892	92.35956	174.59614	114.61004	487.25554	65.69907	374.54982	95.71717	72.46442	312.15826	91.65796	136.00859	324.93726	486.10293	77.47579	89.25251	-0.20045	221.90348	120.47334	3.30750	221.25200	53.77200	5.11160	240.54578	87.84932	4.81092	116.91527	89.05205	5.26194	317.26986	87.14773	6.01364	30.31879	337.16500	0.35080	178.10410	336.61375	0.45102	163.72147	401.71145	2.05466	189.58014	372.39493	1.35307	68.95646	345.63422	4.86103	264.65047	388.98257	0.85193 
